<?xml version="1.0" encoding="UTF-8"?>
<svg width="131px" height="22px" viewBox="0 0 131 22" version="1.1" xmlns="http://www.w3.org/2000/svg" xmlns:xlink="http://www.w3.org/1999/xlink">
    <title>Group 3</title>
    <g id="Page-1" stroke="none" stroke-width="1" fill="none" fill-rule="evenodd">
        <g id="Desktop-HD-Copy-3" transform="translate(-654.000000, -4391.000000)">
            <g id="Group-23" transform="translate(0.000000, 4327.000000)">
                <g id="Group-5" transform="translate(654.000000, 64.000000)">
                    <g id="Group-2">
                        <path d="M7.29958805,14.7003138 C5.25625841,12.656836 5.25625841,9.34320594 7.29958805,7.29989577 C9.34325304,5.25608257 12.6565793,5.25608257 14.7002443,7.29989577 C16.7437416,9.34320594 16.7437416,12.656836 14.7002443,14.7003138 C12.6565793,16.7437917 9.34325304,16.7437917 7.29958805,14.7003138 Z M18.7781843,3.22199463 C14.48243,-1.07388642 7.51740236,-1.0740541 3.22164805,3.22182695 C-1.07393858,7.51770801 -1.07393858,14.4825016 3.22198341,18.778215 C7.51740236,23.0739283 14.48243,23.0739283 18.7781843,18.778215 C23.0739386,14.4825016 23.0739386,7.51770801 18.7781843,3.22199463 L18.7781843,3.22199463 Z" id="Fill-8" fill="#1A1921"></path>
                        <path d="M16.4712641,5.52889282 C13.4496984,2.50702052 8.55030163,2.50685284 5.5287359,5.52855747 C2.50700248,8.55026209 2.50700248,13.4496122 5.52907125,16.4713168 C8.55030163,19.492686 13.4496984,19.4930214 16.4712641,16.4713168 C19.4929975,13.4496122 19.4929975,8.55026209 16.4712641,5.52889282" id="Fill-9" fill="#F8EDE4"></path>
                        <path d="M14.7002443,14.7003138 C12.6565793,16.7437917 9.34325304,16.7437917 7.29958805,14.7003138 C5.25625841,12.656836 5.25625841,9.34320594 7.29958805,7.29989577 C8.88917979,5.71031918 11.2467388,5.35702404 13.1775562,6.24017804 C14.2562317,6.73348335 15.5324324,6.46771554 16.3713277,5.62882823 C17.7856955,4.21447394 17.3695176,1.80764035 15.5478589,0.980993448 C11.4945676,-0.85808631 6.55476035,-0.111253593 3.22164805,3.22182695 C-1.07393858,7.51770801 -1.07393858,14.4825016 3.22198341,18.778215 C7.51740236,23.0739283 14.48243,23.0739283 18.7781843,18.778215 L14.7002443,14.7003138" id="Fill-10" fill="#F26E23"></path>
                        <path d="M18.7463254,17.8025033 L11.5559379,10.9988472 C11.7511156,10.6911602 11.8569207,10.3348469 11.8564177,9.96143051 C11.8555793,9.44364438 11.6531914,8.95671079 11.2864786,8.59083989 L10.2852706,7.59265957 L10.2847676,7.59215653 L8.10645676,5.6065272 C8.0182579,5.52671302 7.8812646,5.52503625 7.79189199,5.60703023 C7.6968183,5.69405452 7.69044652,5.84161016 7.77747164,5.93651526 L9.52250131,7.84031828 L8.90427085,8.46005194 L7.00179111,6.71436819 C6.90973564,6.63019441 6.76603521,6.62868532 6.67280599,6.71470355 C6.57421105,6.80575208 6.56800695,6.95934408 6.65905635,7.05810575 L8.41012244,8.95570473 L7.79205966,9.57560607 L5.88337583,7.83579101 C5.79500928,7.75597682 5.65818366,7.75430005 5.56881105,7.83629404 C5.47373736,7.92331833 5.46736558,8.07070628 5.5543907,8.16561138 L7.54439859,10.336859 L7.54624305,10.3392065 L8.54728342,11.3373868 C9.20139707,11.9894821 10.2074678,12.076171 10.9563198,11.6004718 L17.7796591,18.7718432 L17.8051462,18.7973301 C18.0798035,19.0572293 18.5132523,19.0451565 18.7731539,18.7705018 C19.0330555,18.4958471 19.0209827,18.0624025 18.7463254,17.8025033" id="Fill-11" fill="#1A1921"></path>
                        <path d="M20.8686316,19.6710942 C20.5089613,19.3114274 19.9259433,19.3114274 19.566273,19.6710942 C19.2066027,20.0307611 19.2066027,20.6137735 19.566273,20.9734404 C19.9259433,21.3331072 20.5089613,21.3331072 20.8686316,20.9734404 C21.2283018,20.6137735 21.2283018,20.0307611 20.8686316,19.6710942" id="Fill-12" fill="#1A1921"></path>
                    </g>
                    <g id="Taste-Box" transform="translate(28.000000, 2.000000)" fill-rule="nonzero">
                        <path d="M6.37225938,16.7631801 C6.73690026,16.7955926 7.07318019,16.7105097 7.38109916,16.5079315 C7.68901813,16.3053532 7.84297761,15.9771764 7.84297761,15.5234011 C7.87539013,13.4327933 7.88349326,11.4475263 7.867287,9.56759996 C7.85108074,7.68767363 7.84297761,5.77533477 7.84297761,3.83058339 C8.32916546,3.83058339 8.90043617,3.83868652 9.55678976,3.85489278 C10.2131434,3.87109904 10.9140642,3.81437713 11.6595522,3.68472703 C12.0485025,3.60369573 12.3199574,3.44163311 12.4739168,3.19853919 C12.6278763,2.95544527 12.6845982,2.68399039 12.6440826,2.38417455 C12.6035669,2.08435871 12.48202,1.792646 12.2794417,1.50903643 C12.0768634,1.22542685 11.8216148,1.01879702 11.5136958,0.889146924 L11.5136958,0.889146924 L11.3678395,0.840528139 C10.962683,0.840528139 10.5656295,0.844579705 10.1766793,0.852682835 C9.78772899,0.860785966 9.39877871,0.864837532 9.00982844,0.864837532 C7.69712126,0.864837532 6.4046719,0.852682835 5.13248037,0.828373443 C3.86028884,0.804064051 2.5435301,0.832425009 1.18220413,0.913456316 C0.890491422,0.994487624 0.647397499,1.14844711 0.452922361,1.37533477 C0.258447223,1.60222243 0.124745566,1.84531635 0.0518173888,2.10461654 C-0.021110788,2.36391672 -0.0170592226,2.61916534 0.0639720849,2.87036239 C0.145003392,3.12155945 0.315169138,3.31198302 0.574469322,3.44163311 C0.898594553,3.60369573 1.2794417,3.71308799 1.71701076,3.76980991 C2.15457982,3.82653182 2.57999418,3.85894435 2.99325385,3.86704748 C3.40651352,3.87515061 3.78736067,3.87109904 4.13579529,3.85489278 C4.48422991,3.83868652 4.7313754,3.83058339 4.87723175,3.83058339 L4.87723175,3.83058339 L4.87723175,9.54329057 C4.87723175,11.4394232 4.88533488,13.3436589 4.90154115,15.2559978 C4.90154115,15.7097731 5.05550063,16.0663108 5.3634196,16.325611 C5.67133857,16.5849112 6.00761849,16.7307676 6.37225938,16.7631801 Z M17.5882594,16.6965253 L17.894026,16.6902519 C18.4450389,16.6740456 18.9352783,16.5970659 19.3647442,16.4593127 C19.7942101,16.3215594 20.2358308,16.0825171 20.6896061,15.7421856 C20.9651125,16.1311359 21.2892377,16.3904361 21.6619818,16.5200862 C22.0347258,16.6497362 22.3791088,16.6618909 22.6951309,16.5565502 C23.011153,16.4512095 23.2582985,16.2445797 23.4365674,15.9366607 C23.6148363,15.6287418 23.6391457,15.2397915 23.5094956,14.7698099 L23.5094956,14.7698099 L22.5371199,12.7764397 C22.4885011,12.6305834 22.452037,12.4401598 22.4277276,12.205169 C22.4034182,11.9701782 22.3831604,11.7230327 22.3669541,11.4637326 C22.3507479,11.2044324 22.3426447,10.9572869 22.3426447,10.7222961 L22.3426447,10.7222961 L22.3426447,10.1510254 C22.3264385,9.71345632 22.3223869,9.27993882 22.3304901,8.85047289 C22.3385932,8.42100696 22.3426447,7.97938633 22.3426447,7.52561101 C22.3426447,7.25010457 22.3466963,7.01916534 22.3547994,6.83279333 C22.3629026,6.64642133 22.3629026,6.47220401 22.3547994,6.3101414 C22.3466963,6.14807878 22.3102322,5.9941193 22.2454072,5.84826295 C22.1805821,5.70240659 22.0752414,5.53224085 21.9293851,5.33776571 C21.7511162,5.09467179 21.4796613,4.92450604 21.1150204,4.82726847 C20.7503796,4.7300309 20.3695324,4.67736055 19.972479,4.66925742 C19.5754256,4.66115429 19.1824238,4.68951525 18.7934735,4.75434029 C18.4045232,4.81916534 18.0966042,4.89209352 17.8697166,4.97312482 C16.5570094,5.44310641 15.4630867,6.21290383 14.5879486,7.28251709 C14.3448547,7.5742298 14.1058123,7.92266442 13.8708215,8.32782096 C13.6358308,8.73297749 13.4535103,9.11382464 13.3238602,9.47036239 C13.2104164,9.79448762 13.1091273,10.126716 13.0199928,10.4670475 C12.9308584,10.807379 12.8700849,11.1558136 12.8376724,11.5123513 C12.7728473,12.3712832 12.8457755,13.1289259 13.0564569,13.7852795 C13.2671383,14.4416331 13.5953151,14.9885944 14.0409873,15.4261635 C14.4866595,15.8637326 15.0336208,16.1919094 15.6818713,16.4106939 C16.3301217,16.6294784 17.0675066,16.7226644 17.894026,16.6902519 L17.5882594,16.6965253 Z M17.733584,13.8003513 L17.5658492,13.7974342 C17.2822396,13.781228 17.0148363,13.7082998 16.7636392,13.5786497 C16.5124422,13.4489996 16.2977092,13.258576 16.1194403,13.007379 C15.9411715,12.7561819 15.8439339,12.4442114 15.8277276,12.0714674 C15.8115214,11.7959609 15.8358308,11.5123513 15.9006558,11.2206386 C15.9654808,10.9289259 16.0465122,10.6453164 16.1437497,10.3698099 C16.3706374,9.68914692 16.7757939,9.09761838 17.3592193,8.59522427 C17.9426447,8.09283017 18.5989983,7.77680807 19.3282801,7.64715797 C19.2958676,8.5222961 19.291816,9.38933109 19.3161254,10.2482629 C19.3404348,11.1071948 19.4255177,11.9661267 19.571374,12.8250585 C19.3931052,13.0033274 19.1905269,13.1613385 18.9636392,13.2990917 C18.7367516,13.4368449 18.5341733,13.5624434 18.3559044,13.6758873 C18.1128105,13.7731248 17.8494587,13.8136405 17.5658492,13.7974342 L17.733584,13.8003513 Z M29.7682787,16.726716 C30.2544666,16.8320567 30.7487576,16.8604176 31.2511517,16.8117989 C31.9642272,16.7307676 32.5881682,16.4836221 33.1229749,16.0703624 C33.6577815,15.6571027 34.062938,15.1587602 34.3384445,14.5753348 C34.6139509,13.9919094 34.7476526,13.3639167 34.7395495,12.6913569 C34.7314463,12.018797 34.5491259,11.3745981 34.1925881,10.7587602 C33.9494942,10.3373974 33.6456268,10.0132722 33.2809859,9.78638449 C32.916345,9.55949683 32.5233432,9.37312482 32.1019804,9.22726847 C31.6806176,9.08141212 31.2511517,8.95176203 30.8135826,8.83831819 C30.3760135,8.72487436 29.9627539,8.56281175 29.5738036,8.35213035 C29.4279472,8.27109904 29.3428644,8.16575834 29.318555,8.03610825 C29.2942456,7.90645816 29.3023487,7.77680807 29.3428644,7.64715797 C29.38338,7.51750788 29.4441535,7.40811562 29.5251848,7.31898118 C29.6062161,7.22984674 29.6791443,7.17717639 29.7439693,7.16097013 C29.9546507,7.07993882 30.2301572,7.05968099 30.5704887,7.10019665 C30.9108202,7.1407123 31.2268423,7.21769204 31.518555,7.33113587 C31.7454426,7.41216718 31.9642272,7.49725005 32.1749086,7.58638449 C32.38559,7.67551893 32.6205808,7.72008615 32.8798809,7.72008615 C33.3012437,7.72008615 33.6213174,7.59853919 33.8401019,7.35544527 C34.0588865,7.11235134 34.1723303,6.8246902 34.1804334,6.49246184 C34.1885366,6.16023348 34.0953506,5.83205668 33.9008754,5.50793145 C33.7064003,5.18380622 33.4146876,4.93260917 33.0257373,4.75434029 C32.6854058,4.60848394 32.3126618,4.47478228 31.9075053,4.35323532 C31.5023487,4.23168836 31.0931406,4.15470862 30.6798809,4.1222961 C30.2666213,4.08988357 29.8574132,4.10203827 29.4522566,4.15876018 C29.0471001,4.2154821 28.6743561,4.34108063 28.3340246,4.53555576 C27.8802493,4.79485595 27.491299,5.12708431 27.1671738,5.53224085 C26.8430485,5.93739738 26.6121093,6.38306958 26.4743561,6.86925742 C26.3366029,7.35544527 26.2960872,7.85378781 26.3528091,8.36428505 C26.409531,8.87478228 26.5918515,9.35691856 26.8997704,9.81069389 C27.1914832,10.2482629 27.5723303,10.592646 28.0423119,10.8438431 C28.5122935,11.0950401 28.9903782,11.3016699 29.476566,11.4637326 C29.8168975,11.5771764 30.18559,11.674414 30.5826434,11.7554453 C30.9796968,11.8364766 31.3159767,12.0147455 31.5914832,12.2902519 C31.6887207,12.4036957 31.7494942,12.5536036 31.7738036,12.7399757 C31.798113,12.9263477 31.7859583,13.100565 31.7373395,13.2626276 C31.6887207,13.4246902 31.5955347,13.5624434 31.4577815,13.6758873 C31.3200283,13.7893311 31.1377078,13.846053 30.9108202,13.846053 C30.5704887,13.7974342 30.2463635,13.724506 29.9384445,13.6272685 C29.6305255,13.5300309 29.3388128,13.3760714 29.0633064,13.16539 C28.9336563,13.0681524 28.8080577,12.9547086 28.6865108,12.8250585 C28.5649638,12.6954084 28.4434169,12.5738615 28.3218699,12.4604176 C28.2003229,12.3469738 28.0666213,12.2497362 27.9207649,12.1687049 C27.7749086,12.0876736 27.612846,12.0390548 27.4345771,12.0228486 C27.1104518,11.9904361 26.8349454,12.0350033 26.6080577,12.1565502 C26.3811701,12.2780972 26.2069528,12.4482629 26.0854058,12.6670475 C25.9638588,12.885832 25.8949822,13.1289259 25.878776,13.3963292 C25.8625697,13.6637326 25.9030854,13.9351874 26.0003229,14.2106939 L26.0003229,14.2106939 L26.0732511,14.3565502 C26.3649638,14.713088 26.7052953,15.0534195 27.0942456,15.3775447 C27.4831959,15.7016699 27.9045587,15.981228 28.358334,16.2162187 C28.8121093,16.4512095 29.2820909,16.6213753 29.7682787,16.726716 Z M40.6458464,16.4350033 C40.9051466,16.5079315 41.1563437,16.5241377 41.3994376,16.4836221 C41.6425315,16.4431064 41.861316,16.3377657 42.0557912,16.1676 C42.2502663,15.9974342 42.3880195,15.766495 42.4690508,15.4747823 C42.5662884,15.1020383 42.5946494,14.713088 42.5541337,14.3079315 C42.5136181,13.9027749 42.4933602,13.5057215 42.4933602,13.1167712 C42.477154,12.2254269 42.4731024,11.3340825 42.4812055,10.4427381 C42.4893087,9.5513937 42.4933602,8.66004932 42.4933602,7.76870493 C43.0119606,7.76870493 43.5184063,7.7606018 44.0126973,7.74439554 C44.5069882,7.72818928 44.9405057,7.56612667 45.3132497,7.2582077 C45.5239311,7.07993882 45.6495297,6.85305116 45.6900453,6.57754471 C45.730561,6.30203827 45.7062516,6.03463495 45.6171171,5.77533477 C45.5279827,5.51603459 45.3780748,5.28914692 45.1673934,5.09467179 C44.956712,4.90019665 44.7055149,4.80295908 44.4138022,4.80295908 L44.4138022,4.80295908 L42.4933602,4.80295908 C42.4933602,4.21953366 42.4974118,3.63610825 42.5055149,3.05268284 C42.5136181,2.46925742 42.5095665,1.88583201 42.4933602,1.30240659 C42.4933602,1.20516902 42.4649993,1.09982832 42.4082774,0.986384493 C42.3515555,0.872940662 42.290782,0.775703093 42.2259569,0.694671786 C41.918038,0.257102725 41.5250361,0.0261634985 41.0469514,0.00185410619 C40.5688667,-0.0224552861 40.1677617,0.192277679 39.8436365,0.646053001 C39.7139864,0.808115616 39.624852,1.09577676 39.5762332,1.50903643 C39.5276144,1.9222961 39.4992534,2.35581359 39.4911503,2.80958891 C39.4830472,3.26336424 39.4870987,3.68067547 39.503305,4.06152261 C39.5195113,4.44236976 39.5276144,4.68951525 39.5276144,4.80295908 L39.5276144,4.80295908 L38.5795481,4.80295908 C38.2554229,4.80295908 37.9637101,4.90019665 37.70441,5.09467179 C37.396491,5.32155945 37.1979643,5.5727565 37.1088299,5.84826295 C37.0196954,6.12376939 37.0196954,6.39117271 37.1088299,6.65047289 C37.1979643,6.90977307 37.3600269,7.13666074 37.5950177,7.33113587 C37.8300085,7.52561101 38.1095665,7.66336424 38.4336917,7.74439554 L38.4336917,7.74439554 L39.5276144,7.76870493 L39.5276144,7.76870493 L39.5276144,8.95986516 C39.5276144,9.46225926 39.5316659,9.99301433 39.5397691,10.5521303 C39.5478722,11.1112464 39.5519238,11.6501046 39.5519238,12.1687049 L39.5519238,12.1687049 L39.5519238,13.4327933 C39.5357175,13.8379499 39.5357175,14.218797 39.5519238,14.5753348 C39.56813,14.8832537 39.6045941,15.1749664 39.661316,15.4504729 C39.718038,15.7259793 39.8031208,15.9204545 39.9165647,16.0338983 C40.1434523,16.2283734 40.3865462,16.3620751 40.6458464,16.4350033 Z M51.2924749,16.5443955 C51.916416,16.6578394 52.5849242,16.6578394 53.2979998,16.5443955 C54.0110753,16.4309517 54.7646664,16.2283734 55.5587732,15.9366607 C55.8828985,15.8232169 56.2313331,15.6692574 56.6040771,15.4747823 C56.9768211,15.2803071 57.2685338,15.0453164 57.4792152,14.7698099 C57.7385154,14.4294784 57.8762686,14.1053532 57.8924749,13.7974342 C57.9086812,13.4895152 57.835753,13.2302151 57.6736904,13.0195337 C57.5116277,12.8088523 57.2806885,12.6589443 56.9808727,12.5698099 C56.6810568,12.4806755 56.3366738,12.484727 55.9477235,12.5819646 L55.9477235,12.5819646 L55.8018672,12.6548928 C55.3805044,12.8979867 54.926729,13.1208228 54.4405412,13.3234011 C53.9543533,13.5259793 53.4722171,13.659681 52.9941324,13.724506 C52.5160476,13.7893311 52.0582207,13.7690733 51.6206517,13.6637326 C51.1830826,13.5583919 50.7941324,13.3112464 50.4538009,12.9222961 C50.956195,12.7602335 51.4788469,12.6143771 52.0217567,12.484727 C52.5646664,12.3550769 53.0954215,12.1970659 53.6140219,12.0106939 C54.1326222,11.8243219 54.6350163,11.6055373 55.1212042,11.3543403 C55.607392,11.1031432 56.0530642,10.7749664 56.4582207,10.3698099 C56.8795835,9.94844711 57.1429353,9.48251709 57.248276,8.97201985 C57.3536167,8.46152261 57.341462,7.95507694 57.2118119,7.45268284 C57.0821618,6.95028873 56.8431195,6.48435871 56.4946848,6.05489278 C56.1462502,5.62542685 55.728939,5.29725005 55.2427511,5.07036239 C54.6593257,4.79485595 53.9867659,4.67736055 53.2250716,4.71787621 C52.4633773,4.75839186 51.7178893,4.91640291 50.9886075,5.19190935 C50.2593257,5.4674158 49.594869,5.84015982 48.9952373,6.3101414 C48.3956056,6.78012298 47.9580366,7.29872335 47.6825301,7.8659425 C47.4718487,8.31971783 47.3097861,8.83021506 47.1963423,9.39743422 C47.0828985,9.96465337 47.0342797,10.5399757 47.0504859,11.1234011 C47.0666922,11.7068265 47.1517751,12.2780972 47.3057346,12.8372132 C47.459694,13.3963292 47.6987364,13.8946718 48.0228616,14.3322408 C48.4928432,14.9804913 48.9992889,15.4828854 49.5421986,15.8394232 C50.0851084,16.1959609 50.6685338,16.4309517 51.2924749,16.5443955 Z M49.8217567,10.5156663 C49.902788,9.94844711 50.0324381,9.50682648 50.2107069,9.19080438 C50.3889758,8.87478228 50.6644823,8.61143053 51.0372263,8.40074913 L51.0372263,8.40074913 L51.4747953,8.15765521 C51.7989206,7.97938633 52.2040771,7.84163311 52.6902649,7.74439554 C53.1764528,7.64715797 53.6464344,7.6795705 54.1002097,7.84163311 C54.2298598,7.8902519 54.3149427,7.97533477 54.3554583,8.09688173 C54.395974,8.21842869 54.4162318,8.34402722 54.4162318,8.47367731 C54.4162318,8.70056497 54.2541692,8.91124637 53.930044,9.10572151 C53.6059187,9.30019665 53.2088653,9.47846552 52.7388837,9.64052814 C52.2689021,9.80259075 51.7705596,9.95655024 51.2438561,10.1024066 C50.7171526,10.2482629 50.2431195,10.3860162 49.8217567,10.5156663 Z M69.4454003,16.4957768 C70.0126195,16.4957768 70.5838902,16.4633642 71.1592125,16.3985392 C71.7345348,16.3337141 72.2936508,16.2243219 72.8365605,16.0703624 C73.3794703,15.9164029 73.8535035,15.6935668 74.25866,15.4018541 C74.939323,14.9156663 75.4781812,14.340344 75.8752346,13.6758873 C76.272288,13.0114305 76.4991757,12.3226644 76.5558976,11.6095889 C76.6126195,10.8965134 76.4789178,10.2036957 76.1547926,9.53113587 C75.8306674,8.85857602 75.2877576,8.27920217 74.5260633,7.79301433 C75.1094887,7.20958891 75.5146453,6.58159628 75.7415329,5.90903643 C75.9684206,5.23647657 76.0251425,4.58012298 75.9116987,3.93997565 C75.7982548,3.29982832 75.5227484,2.69614508 75.0851793,2.12892593 C74.6476103,1.56170678 74.0479786,1.09982832 73.2862843,0.74329057 C72.4435587,0.354340294 71.5886784,0.176071417 70.7216434,0.20848394 C69.8546084,0.240896463 68.991625,0.394855948 68.1326931,0.670362393 C67.5816803,0.84863127 67.0509252,1.07551893 66.540428,1.35102538 C66.0299307,1.62653182 65.6126195,2.00737897 65.2884943,2.49356681 C65.1426379,2.70424821 65.0697097,2.93518744 65.0697097,3.18638449 C65.0697097,3.43758155 65.1304832,3.66852077 65.2520302,3.87920217 C65.3735771,4.08988357 65.5356397,4.26410088 65.738218,4.40185411 C65.9407963,4.53960733 66.1717355,4.60848394 66.4310357,4.60848394 L66.4310357,4.60848394 L66.4310357,14.4780972 C66.2851793,14.9318725 66.2892309,15.3491838 66.4431904,15.7300309 C66.5971499,16.110878 67.0225642,16.3418173 67.7194335,16.4228486 L67.7194335,16.4228486 L67.8895992,16.447158 C68.3595808,16.4795705 68.8781812,16.4957768 69.4454003,16.4957768 Z M70.2719197,6.50461654 L69.3967815,6.50461654 L69.3967815,3.34439554 C69.8505569,3.21474545 70.3448478,3.15397197 70.8796545,3.1620751 C71.4144611,3.17017823 71.8925458,3.31198302 72.3139086,3.58748947 C72.6866526,3.81437713 72.9175919,4.11824453 73.0067263,4.49909168 C73.0958607,4.87993882 72.9864685,5.24052814 72.6785495,5.58085963 C72.4678681,5.82395355 72.2288257,6.01032556 71.9614224,6.13997565 C71.6940191,6.26962575 71.4185127,6.36281175 71.1349031,6.41953366 C70.8512935,6.47625558 70.5636324,6.50461654 70.2719197,6.50461654 L70.2719197,6.50461654 Z M69.3967815,13.5300309 L69.3967815,9.64052814 C69.737113,9.62432188 70.0531351,9.60811562 70.3448478,9.59190935 C70.6365605,9.57570309 70.9242217,9.58380622 71.2078313,9.61621875 C71.4914408,9.64863127 71.7709989,9.71345632 72.0465053,9.81069389 C72.3220117,9.90793145 72.6056213,10.0537878 72.897334,10.2482629 C73.2376655,10.4913569 73.4402438,10.7547086 73.5050688,11.0383182 C73.5698939,11.3219278 73.577997,11.6582077 73.5293782,12.047158 C73.3349031,12.3874895 73.0756029,12.6548928 72.7514777,12.8493679 C72.4273524,13.0438431 72.0789178,13.193751 71.7061738,13.2990917 C71.3334298,13.4044324 70.9444795,13.4692574 70.539323,13.4935668 C70.1341664,13.5178762 69.7533193,13.5300309 69.3967815,13.5300309 L69.3967815,13.5300309 Z M82.0489349,16.6902519 C82.8754542,17.1116147 83.697922,17.2412648 84.5163382,17.0792022 C85.3347544,16.9171396 86.0883456,16.5808596 86.7771117,16.0703624 C87.4658778,15.5598652 88.0574063,14.927821 88.5516973,14.1742298 C89.0459883,13.4206386 89.3741651,12.6629959 89.5362277,11.9013016 C89.6496715,11.366495 89.7023419,10.8519462 89.6942387,10.3576552 C89.6861356,9.86336424 89.6415684,9.3407123 89.5605371,8.78969941 C89.4146807,7.94697381 89.1148649,7.22174361 88.6610896,6.6140088 C88.2073142,6.006274 87.6563014,5.54844711 87.0080509,5.24052814 C86.3598004,4.93260917 85.6588796,4.78270125 84.9052885,4.79080438 C84.1516973,4.79890751 83.4021577,4.99743422 82.6566697,5.38638449 C82.2353069,5.59706589 81.842305,5.87257234 81.4776642,6.21290383 C81.1130233,6.55323532 80.7848465,6.9300309 80.4931338,7.34329057 C80.2014211,7.75655024 79.9542756,8.19006773 79.7516973,8.64384306 C79.549119,9.09761838 79.391108,9.55949683 79.2776642,10.0294784 L79.2776642,10.0294784 L79.2533548,10.1753348 C79.1723235,10.6129038 79.1156015,11.0626276 79.083189,11.524506 C79.0507765,11.9863845 79.0912921,12.4442114 79.204736,12.8979867 C79.3019735,13.3193495 79.4275721,13.724506 79.5815316,14.1134563 C79.735491,14.5024066 79.950224,14.8751506 80.2257304,15.2316884 C80.4688244,15.5558136 80.7402793,15.8353716 81.0400951,16.0703624 C81.3399109,16.3053532 81.6761909,16.511983 82.0489349,16.6902519 Z M83.8478299,14.1013016 C83.5237047,14.0931985 83.2360435,14.0000125 82.9848465,13.8217436 C82.7336494,13.6434747 82.5310711,13.4003808 82.3771117,13.0924618 C82.2231522,12.7845429 82.121863,12.4442114 82.0732443,12.0714674 C82.0408317,11.8121672 82.0408317,11.5569186 82.0732443,11.3057215 C82.1056568,11.0545245 82.1461724,10.7992758 82.1947912,10.5399757 C82.3082351,10.1672316 82.458143,9.81069389 82.644515,9.47036239 C82.830887,9.1300309 83.0496715,8.83426663 83.3008686,8.58306958 C83.5520656,8.33187252 83.8478299,8.12929425 84.1881614,7.97533477 C84.5284929,7.82137528 84.9012369,7.74439554 85.3063934,7.74439554 C85.9222314,7.98748947 86.335491,8.38859444 86.5461724,8.94771046 C86.7568538,9.50682648 86.8216789,10.098355 86.7406476,10.7222961 C86.6596163,11.3462372 86.4489349,11.9458688 86.1086034,12.5211911 C85.7682719,13.0965134 85.3631153,13.5219278 84.8931338,13.7974342 C84.5203897,14.0081156 84.1719551,14.1094048 83.8478299,14.1013016 Z" id="TasteBo" fill="#1A1921"></path>
                        <path d="M100.620425,16.9576552 C100.936447,17.0224803 101.240315,16.9941193 101.532027,16.8725723 C101.82374,16.7510254 102.066834,16.5565502 102.261309,16.2891469 C102.455784,16.0217436 102.528713,15.7097731 102.480094,15.3532353 C102.447681,15.0615226 102.350444,14.7941193 102.188381,14.5510254 L102.188381,14.5510254 L101.702193,13.8217436 C101.28083,13.1734931 100.835158,12.5455005 100.365177,11.9377657 C99.895195,11.3300309 99.4090072,10.7344508 98.9066131,10.1510254 C99.2469445,9.77828136 99.587276,9.41364048 99.9276075,9.05710272 C100.267939,8.70056497 100.616374,8.33592409 100.972911,7.96318007 C101.199799,7.73629241 101.467202,7.48509536 101.775121,7.20958891 C102.08304,6.93408247 102.301825,6.63426663 102.431475,6.3101414 C102.561125,5.90498486 102.57328,5.55655024 102.467939,5.26483753 C102.362598,4.97312482 102.184329,4.75434029 101.933132,4.60848394 C101.681935,4.46262759 101.390223,4.39375098 101.057994,4.40185411 C100.725766,4.40995724 100.397589,4.5193495 100.073464,4.7300309 L100.073464,4.7300309 L99.9519169,4.82726847 C99.4333166,5.32966258 98.9228193,5.83205668 98.4204252,6.33445079 C97.9180311,6.8368449 97.4318433,7.35544527 96.9618617,7.8902519 C96.734974,7.63095171 96.483777,7.35949683 96.2082705,7.07588726 C95.9327641,6.79227768 95.6653608,6.52487436 95.4060606,6.27367731 C95.1467604,6.02248026 94.907718,5.7955926 94.6889335,5.59301433 C94.470149,5.39043606 94.3121379,5.23242501 94.2149004,5.11898118 C94.1014565,5.00553735 94.0001674,4.91640291 93.9110329,4.85157786 C93.8218985,4.78675282 93.7044031,4.71382464 93.5585468,4.63279333 C93.2992466,4.50314324 93.0318433,4.46262759 92.7563368,4.51124637 C92.4808304,4.55986516 92.241788,4.66925742 92.0392097,4.83942317 C91.8366315,5.00958891 91.6867236,5.22027031 91.589486,5.47146737 C91.4922484,5.72266442 91.4841453,5.9941193 91.5651766,6.28583201 C91.6300016,6.49651341 91.7312908,6.69909168 91.869044,6.89356681 C92.0067972,7.08804195 92.1567051,7.27441396 92.3187678,7.45268284 C92.4808304,7.63095171 92.6509961,7.79706589 92.829265,7.95102538 C93.0075339,8.10498486 93.1695965,8.25489278 93.3154528,8.40074913 C93.509928,8.59522427 93.6638875,8.75323532 93.7773313,8.87478228 C93.8907751,8.99632924 94.0001674,9.11382464 94.1055081,9.22726847 C94.2108488,9.3407123 94.3323957,9.47036239 94.470149,9.61621875 C94.6079022,9.7620751 94.7821195,9.94844711 94.9928009,10.1753348 C94.749707,10.4670475 94.4660974,10.8114305 94.1419722,11.2084839 C93.8178469,11.6055373 93.4977733,12.0147455 93.1817512,12.4361082 C92.8657291,12.857471 92.5699648,13.2828854 92.2944584,13.7123513 C92.0189519,14.1418173 91.8082705,14.5429222 91.6624142,14.9156663 C91.5165578,15.3046165 91.5084547,15.6489996 91.6381048,15.9488154 C91.7677549,16.2486313 91.9743847,16.4714674 92.2579943,16.6173237 C92.5416038,16.7631801 92.8657291,16.8117989 93.23037,16.7631801 C93.5950108,16.7145613 93.9231876,16.5443955 94.2149004,16.2526828 C94.3607567,16.1230327 94.4823037,15.9690733 94.5795412,15.7908044 C94.6767788,15.6125355 94.7821195,15.4342666 94.8955633,15.2559978 C95.2196886,14.7698099 95.5519169,14.2917252 95.8922484,13.8217436 C96.2325799,13.351762 96.5891177,12.8898836 96.9618617,12.4361082 C97.480462,13.0681524 97.9707015,13.7164029 98.4325799,14.3808596 C98.8944584,15.0453164 99.3603884,15.7178762 99.83037,16.3985392 C100.041051,16.7064582 100.304403,16.8928302 100.620425,16.9576552 Z" id="x" fill="#F26E23"></path>
                    </g>
                </g>
            </g>
        </g>
    </g>
</svg>