<?xml version="1.0" encoding="UTF-8"?>
<svg width="33px" height="36px" viewBox="0 0 33 36" version="1.1" xmlns="http://www.w3.org/2000/svg" xmlns:xlink="http://www.w3.org/1999/xlink">
    <title>Artboard</title>
    <g id="Artboard" stroke="none" stroke-width="1" fill="none" fill-rule="evenodd">
        <g id="Group" transform="translate(2.000000, 2.000000)" fill="#FFCF90" fill-rule="nonzero">
            <path d="M22.5922462,0.566027917 C22.0799211,0.0975798827 21.8769244,-0.110263955 21.055271,0.0576099139 C20.4785026,0.17751982 6.87450007,3.05855517 1.49025371,11.0637405 C0.17721936,13.2540948 0,15.2477968 0,16.9121463 C0,20.92673 2.53584793,24.7126855 6.23167712,26.3338674 C5.1216395,27.2164043 3.47188837,28.3963178 2.31996253,28.9894721 C1.59014098,29.3651898 1.27275722,30.2285411 1.57886339,30.9863718 L1.57886339,30.9863718 C1.93169102,31.8641123 2.97406307,32.2574168 3.81827166,31.8209447 C11.4660926,27.8751094 18.5758111,17.2271097 19.2669666,9.23951114 C19.3024104,8.83181746 19.8679013,8.53603969 19.9838994,9.22831955 C20.5526125,12.6033837 18.6579764,22.2041702 13.2785633,28.5514013 C15.1973656,30.356445 17.3304423,30.388421 18.2213724,30.3996126 C23.6748954,30.1837748 29.1219741,25.8318446 28.9979205,16.5923866 C28.9399214,12.2708336 27.2257269,5.79090223 22.5922462,0.566027917 Z" id="Path"></path>
        </g>
    </g>
</svg>